<?xml version="1.0" encoding="UTF-8" standalone="no"?>
<!-- Created with Inkscape (http://www.inkscape.org/) -->

<svg
   width="56.139992"
   height="87.882347"
   viewBox="0 0 56.139992 87.882347"
   version="1.1"
   id="svg5"
   inkscape:version="1.2.1 (9c6d41e410, 2022-07-14)"
   sodipodi:docname="nimphel_logo.svg"
   inkscape:export-filename="logo.png"
   inkscape:export-xdpi="1000"
   inkscape:export-ydpi="1000"
   xmlns:inkscape="http://www.inkscape.org/namespaces/inkscape"
   xmlns:sodipodi="http://sodipodi.sourceforge.net/DTD/sodipodi-0.dtd"
   xmlns="http://www.w3.org/2000/svg"
   xmlns:svg="http://www.w3.org/2000/svg">
  <sodipodi:namedview
     id="namedview7"
     pagecolor="#ffffff"
     bordercolor="#000000"
     borderopacity="0.25"
     inkscape:showpageshadow="2"
     inkscape:pageopacity="0.0"
     inkscape:pagecheckerboard="0"
     inkscape:deskcolor="#d1d1d1"
     inkscape:document-units="px"
     showgrid="false"
     inkscape:zoom="3.7500001"
     inkscape:cx="-35.733332"
     inkscape:cy="71.733331"
     inkscape:window-width="1920"
     inkscape:window-height="1052"
     inkscape:window-x="0"
     inkscape:window-y="0"
     inkscape:window-maximized="1"
     inkscape:current-layer="layer1" />
  <defs
     id="defs2">
    <inkscape:path-effect
       effect="bspline"
       id="path-effect5072"
       is_visible="true"
       lpeversion="1"
       weight="33.333333"
       steps="2"
       helper_size="0"
       apply_no_weight="true"
       apply_with_weight="true"
       only_selected="false" />
    <inkscape:path-effect
       effect="fillet_chamfer"
       id="path-effect1043"
       is_visible="true"
       lpeversion="1"
       nodesatellites_param="F,0,0,1,0,2,0,1 @ F,0,0,1,0,2,0,1 @ F,0,0,1,0,2,0,1 @ F,0,0,1,0,2,0,1"
       unit="px"
       method="auto"
       mode="F"
       radius="2"
       chamfer_steps="1"
       flexible="false"
       use_knot_distance="true"
       apply_no_radius="true"
       apply_with_radius="true"
       only_selected="false"
       hide_knots="false" />
    <inkscape:path-effect
       effect="fillet_chamfer"
       id="path-effect1043-4"
       is_visible="true"
       lpeversion="1"
       nodesatellites_param="F,0,0,1,0,2,0,1 @ F,0,0,1,0,2,0,1 @ F,0,0,1,0,2,0,1 @ F,0,0,1,0,2,0,1"
       unit="px"
       method="auto"
       mode="F"
       radius="2"
       chamfer_steps="1"
       flexible="false"
       use_knot_distance="true"
       apply_no_radius="true"
       apply_with_radius="true"
       only_selected="false"
       hide_knots="false" />
    <inkscape:path-effect
       effect="fillet_chamfer"
       id="path-effect1043-4-4"
       is_visible="true"
       lpeversion="1"
       nodesatellites_param="F,0,0,1,0,2,0,1 @ F,0,0,1,0,2,0,1 @ F,0,0,1,0,2,0,1 @ F,0,0,1,0,2,0,1"
       unit="px"
       method="auto"
       mode="F"
       radius="2"
       chamfer_steps="1"
       flexible="false"
       use_knot_distance="true"
       apply_no_radius="true"
       apply_with_radius="true"
       only_selected="false"
       hide_knots="false" />
    <inkscape:path-effect
       effect="fillet_chamfer"
       id="path-effect1043-4-3"
       is_visible="true"
       lpeversion="1"
       nodesatellites_param="F,0,0,1,0,2,0,1 @ F,0,0,1,0,2,0,1 @ F,0,0,1,0,2,0,1 @ F,0,0,1,0,2,0,1"
       unit="px"
       method="auto"
       mode="F"
       radius="2"
       chamfer_steps="1"
       flexible="false"
       use_knot_distance="true"
       apply_no_radius="true"
       apply_with_radius="true"
       only_selected="false"
       hide_knots="false" />
    <inkscape:path-effect
       effect="fillet_chamfer"
       id="path-effect1043-4-7"
       is_visible="true"
       lpeversion="1"
       nodesatellites_param="F,0,0,1,0,2,0,1 @ F,0,0,1,0,2,0,1 @ F,0,0,1,0,2,0,1 @ F,0,0,1,0,2,0,1"
       unit="px"
       method="auto"
       mode="F"
       radius="2"
       chamfer_steps="1"
       flexible="false"
       use_knot_distance="true"
       apply_no_radius="true"
       apply_with_radius="true"
       only_selected="false"
       hide_knots="false" />
    <inkscape:path-effect
       effect="bspline"
       id="path-effect5072-8"
       is_visible="true"
       lpeversion="1"
       weight="33.333333"
       steps="2"
       helper_size="0"
       apply_no_weight="true"
       apply_with_weight="true"
       only_selected="false" />
    <inkscape:path-effect
       effect="bspline"
       id="path-effect5072-8-5"
       is_visible="true"
       lpeversion="1"
       weight="33.333333"
       steps="2"
       helper_size="0"
       apply_no_weight="true"
       apply_with_weight="true"
       only_selected="false" />
    <inkscape:path-effect
       effect="bspline"
       id="path-effect5072-8-5-9"
       is_visible="true"
       lpeversion="1"
       weight="33.333333"
       steps="2"
       helper_size="0"
       apply_no_weight="true"
       apply_with_weight="true"
       only_selected="false" />
  </defs>
  <g
     inkscape:label="Layer 1"
     inkscape:groupmode="layer"
     id="layer1"
     transform="translate(-32.388055,-12.161722)">
    <g
       aria-label="~"
       id="text2122-6"
       style="font-size:26.6667px;line-height:0em;font-family:Inter;-inkscape-font-specification:'Inter, Normal';fill:#023047;stroke:#023047;stroke-width:0.629187"
       transform="matrix(1.815867,0,0,1.7884458,95.77107,-216.87358)" />
    <g
       id="g4403"
       inkscape:export-filename="logo.png"
       inkscape:export-xdpi="800"
       inkscape:export-ydpi="800">
      <path
         id="rect2796-8"
         style="fill:#98c1d9;stroke-width:1.13386"
         d="m 49.608082,61.653633 h 20.78532 v 5.981308 h -20.78532 z" />
      <path
         id="rect2796-8-4"
         style="fill:#98c1d9;stroke-width:1.13386"
         d="m 49.608082,78.457649 h 20.78532 v 5.981308 h -20.78532 z" />
      <path
         id="rect2796-8-0"
         style="fill:#98c1d9;stroke-width:1.13386"
         d="m 49.608082,71.055656 h 20.78532 v 5.981308 h -20.78532 z" />
    </g>
    <path
       id="path302"
       style="fill:#ee6c4d;stroke-width:1.13386"
       d="M 88.528048,39.898331 A 27.776251,27.736609 0 0 1 60.771168,67.634932 27.776251,27.736609 0 0 1 32.975573,39.937018 27.776251,27.736609 0 0 1 60.693683,12.161783 27.776251,27.736609 0 0 1 88.527939,39.820957" />
    <g
       aria-label="NIMPhEL"
       id="text2316"
       style="font-weight:bold;font-size:14.1386px;line-height:0em;font-family:'Inria Sans';-inkscape-font-specification:'Inria Sans, Bold';fill:#293241;stroke-width:1.13386">
      <path
         d="m 32.388055,100.04407 v -9.614251 h 1.555246 q 1.11695,1.456276 2.12079,3.082215 1.003841,1.6118 1.82388,3.322571 l -0.127248,-2.870136 v -3.53465 h 1.625939 v 9.614251 h -1.555246 q -0.90487,-1.781466 -1.880434,-3.577069 -0.961424,-1.80974 -2.050097,-3.407402 l 0.113109,3.308432 v 3.676039 z"
         id="path275" />
      <path
         d="M 43.74136,100.04407 H 42.044728 V 90.429819 H 43.74136 Z"
         id="path277" />
      <path
         d="m 48.251582,90.429819 2.686334,6.574449 2.672195,-6.574449 h 1.852157 v 9.614251 h -1.625939 v -3.676039 l 0.212079,-3.364987 -2.389424,5.909935 h -1.51283 l -2.332869,-5.924073 0.212079,3.379125 v 3.676039 h -1.625939 v -9.614251 z"
         id="path279" />
      <path
         d="m 58.12033,100.04407 v -9.614251 h 3.167047 q 1.51283,0 2.262176,0.763485 0.763484,0.763484 0.763484,2.035958 v 0.749346 q 0,1.272474 -0.763484,2.050097 -0.749346,0.763484 -2.262176,0.763484 h -1.470415 v 3.251881 z m 3.167047,-7.988312 h -1.470415 v 3.110492 h 1.470415 q 0.622098,0 0.947286,-0.311049 0.339326,-0.311049 0.339326,-0.876593 v -0.749346 q 0,-0.551405 -0.339326,-0.862455 -0.325188,-0.311049 -0.947286,-0.311049 z"
         id="path281" />
      <path
         d="m 69.530173,94.247241 q -0.353465,0 -0.8059,0.169663 -0.452435,0.169664 -1.074534,0.664515 v 4.962651 H 66.0238 V 89.581503 h 1.625939 v 4.185026 q 0.650376,-0.551406 1.21592,-0.791762 0.565544,-0.240356 1.159365,-0.240356 1.032118,0 1.569385,0.664514 0.537267,0.650376 0.537267,1.838018 v 4.807127 h -1.625939 v -4.609186 q 0,-1.187643 -0.975564,-1.187643 z"
         id="path283" />
      <path
         d="m 80.063423,98.418128 v 1.625942 h -5.570609 v -9.614251 h 5.429223 v 1.625939 h -3.732591 v 2.304592 h 3.308433 v 1.625939 h -3.308433 v 2.431839 z"
         id="path285" />
      <path
         d="m 87.613427,98.418128 v 1.625942 h -5.542331 v -9.614251 h 1.696632 v 7.988309 z"
         id="path287" />
    </g>
    <g
       aria-label="~"
       id="text2122-2"
       style="font-size:26.6667px;line-height:0em;font-family:Inter;-inkscape-font-specification:'Inter, Normal';fill:#293241;fill-opacity:1;stroke:#293241;stroke-width:1.11549;stroke-opacity:1"
       transform="matrix(1.0242319,0,0,1.0087651,157.73889,-252.18343)">
      <path
         d="m -102.01744,300.76939 h 2.045453 c -0.02841,-1.64772 0.719698,-2.3106 1.742427,-2.3106 0.672349,0 1.117425,0.29356 2.045457,1.09848 1.382577,1.20265 2.310609,1.74243 3.598489,1.74243 1.931821,0 3.806823,-1.21212 3.750005,-4.35607 h -2.045457 c 0.02841,1.50569 -0.66288,2.31061 -1.742427,2.31061 -0.672349,0 -1.117425,-0.29356 -2.045457,-1.09849 -1.382577,-1.20265 -2.310609,-1.74242 -3.598489,-1.74242 -1.931821,0 -3.806821,1.21212 -3.750001,4.35606 z"
         id="path2124-3"
         style="fill:#293241;fill-opacity:1;stroke:#293241;stroke-width:1.11549;stroke-opacity:1" />
    </g>
    <g
       aria-label="*"
       id="text2917"
       style="font-weight:bold;font-size:39.7964px;line-height:0em;font-family:'Inria Sans';-inkscape-font-specification:'Inria Sans, Bold';fill:#293241;fill-opacity:1;stroke:none;stroke-width:1.13386;stroke-opacity:1"
       transform="translate(-62.14305,-9.680195)">
      <path
         d="m 128.1324,50.264291 -3.06432,2.228599 -1.15409,-1.631653 -1.71125,-3.780658 -1.75104,3.820455 -1.1541,1.591856 -3.06432,-2.228599 1.1541,-1.591856 3.10412,-2.785748 -4.17863,-0.477556 -1.91022,-0.636743 1.19389,-3.581676 1.87043,0.596946 3.62147,2.069413 -0.83572,-4.099029 v -1.98982 h 3.78066 v 1.98982 l -0.83573,4.059233 3.62147,-2.069413 1.91023,-0.596946 1.1541,3.581676 -1.87043,0.636742 -4.17863,0.477557 3.14392,2.785748 z"
         id="path3069"
         style="fill:#293241;fill-opacity:1;stroke:none;stroke-opacity:1" />
    </g>
    <g
       aria-label="+"
       id="text2109"
       style="font-size:26.6667px;font-family:Inter;-inkscape-font-specification:'Inter, Normal';fill:#293241;fill-opacity:1;stroke:none;stroke-width:0.743791;stroke-opacity:1"
       transform="matrix(1.5244353,0,0,1.5244353,97.966478,-354.84714)">
      <g
         id="path2111"
         style="fill:#293241;fill-opacity:1;stroke:none;stroke-width:0.743791;stroke-opacity:1">
        <path
           style="color:#000000;-inkscape-font-specification:'Inter, Normal';fill:#293241;fill-opacity:1;stroke:none;stroke-width:0.743791;stroke-opacity:1"
           d="m -25.965989,282.75014 h 2.121215 v -5.1894 h 5.1894 v -2.12122 h -5.1894 v -5.1894 h -2.121215 v 5.1894 h -5.189401 v 2.12122 h 5.189401 z"
           id="path2116" />
        <path
           style="color:#000000;-inkscape-font-specification:'Inter, Normal';fill:#293241;fill-opacity:1;stroke:none;stroke-width:0.743791;stroke-opacity:1"
           d="m -26.533203,269.68359 v 5.18946 h -5.189453 v 3.2539 h 5.189453 v 5.18946 h 0.566406 2.689453 v -5.18946 h 5.189453 v -3.2539 h -5.189453 v -5.18946 z m 1.134766,1.13282 h 0.986328 v 5.18945 h 5.189453 v 0.98828 h -5.189453 v 5.18945 h -0.986328 v -5.18945 h -5.189454 v -0.98828 h 5.189454 z"
           id="path2118" />
      </g>
    </g>
  </g>
</svg>
